<svg xmlns="http://www.w3.org/2000/svg" viewBox="0 0 400 400">
  <path fill="#22A33A" d="M370.5 28C324.5 13 234.5 14 163.5 61C107.5 98 70.5 163 71.5 241C72 263 77.5 281 77.5 281C77.5 281 65.5 311 58.5 334C55.5 344 57.5 357 65.5 365C74.5 374 88.5 376 98.5 372C121.5 363 151.5 350 151.5 350C151.5 350 167.5 353 189.5 352C267.5 348 327.5 304 358.5 241C395.5 165 391.5 68 370.5 28Z" />
  <path fill="#FFFFFF" d="M124.5 289C154.5 244 207.5 186 288.5 141C312.5 128 312.5 128 312.5 128C312.5 128 296.5 152 266.5 178C218.5 220 167.5 259 104.5 292C92.5 298 92.5 298 92.5 298C92.5 298 107.5 296 124.5 289Z" />
</svg>
