<svg xmlns="http://www.w3.org/2000/svg" viewBox="0 0 512 512">
  <rect width="512" height="512" rx="100" fill="#D49A6A"/>
  <path d="M 97,475 Q 97,475 89,473 Q 80,471 77,463 Q 74,455 76,448 Q 78,441 81,433 Q 84,425 86,418 Q 88,411 92,404 Q 96,397 98,390 Q 101,384 104,378 Q 107,372 111,366 Q 115,360 119,354 Q 123,348 127,342 Q 131,336 135,330 Q 140,324 144,319 Q 149,314 153,308 Q 158,303 163,298 Q 168,293 173,288 Q 178,284 183,279 Q 189,275 194,271 Q 200,267 206,263 Q 211,259 217,255 Q 222,251 228,247 Q 234,244 239,240 Q 245,236 251,232 Q 257,229 263,225 Q 258,225 253,229 Q 248,233 242,235 Q 236,237 230,240 Q 224,243 218,246 Q 212,249 206,253 Q 200,257 194,261 Q 188,265 183,270 Q 178,275 173,280 Q 168,285 162,289 Q 156,294 151,299 Q 146,305 141,311 Q 136,317 131,323 Q 126,329 122,336 Q 118,343 113,349 Q 109,354 104,350 Q 99,345 97,337 Q 96,328 94,320 Q 93,311 92,302 Q 91,293 91,284 Q 91,274 91,265 Q 92,257 94,249 Q 95,241 97,234 Q 99,227 101,220 Q 103,214 106,207 Q 110,201 113,195 Q 117,189 121,183 Q 125,177 130,172 Q 135,167 140,162 Q 145,157 151,153 Q 157,149 163,145 Q 169,141 175,138 Q 181,134 188,131 Q 195,128 202,125 Q 209,122 217,120 Q 225,117 232,115 Q 240,112 248,110 Q 256,107 264,105 Q 272,102 280,100 Q 288,97 296,94 Q 304,92 312,89 Q 320,86 327,82 Q 335,79 342,75 Q 350,70 357,66 Q 364,61 370,56 Q 377,51 383,45 Q 388,39 392,43 Q 396,47 397,55 Q 399,63 401,71 Q 403,79 404,88 Q 406,97 406,106 Q 407,115 407,125 Q 407,134 407,144 Q 406,153 405,162 Q 404,171 402,180 Q 401,188 399,196 Q 397,204 395,211 Q 393,218 390,225 Q 387,232 384,238 Q 381,244 378,250 Q 375,257 372,263 Q 368,269 364,275 Q 360,281 356,287 Q 352,293 347,298 Q 342,303 337,308 Q 332,313 327,318 Q 321,323 316,328 Q 310,332 304,336 Q 298,340 292,344 Q 286,348 279,351 Q 273,354 266,357 Q 259,360 252,362 Q 245,364 237,365 Q 230,366 222,367 Q 214,367 206,367 Q 198,366 191,365 Q 184,364 177,362 Q 174,366 172,371 Q 170,376 167,381 Q 164,386 161,391 Q 158,397 156,403 Q 153,409 151,415 Q 149,420 148,426 Q 146,432 144,437 Q 142,443 140,448 Q 138,454 136,459 Q 134,464 132,469 Q 130,474 128,475 Z" fill="white" opacity="0.92" fill-rule="evenodd"/>
</svg>
