<?xml version="1.0" encoding="UTF-8" standalone="no"?>
<svg width="364" height="390" viewBox="0 0 364 390" xmlns="http://www.w3.org/2000/svg">
  <path d="M 69.0,369.5 Q 69.0,369.5 62.8,368.2 Q 56.5,367.0 54.5,361.5 Q 52.5,356.0 54.0,351.0 Q 55.5,346.0 57.5,340.5 Q 59.5,335.0 61.0,330.0 Q 62.5,325.0 65.0,320.0 Q 67.5,315.0 69.2,310.2 Q 71.0,305.5 73.0,301.0 Q 75.0,296.5 78.2,292.2 Q 81.5,288.0 84.0,283.0 Q 86.5,278.0 89.2,273.2 Q 92.0,268.5 95.0,265.0 Q 98.0,261.5 101.0,257.0 Q 104.0,252.5 107.2,248.2 Q 110.5,244.0 114.0,240.0 Q 117.5,236.0 121.2,232.2 Q 125.0,228.5 127.8,224.8 Q 130.5,221.0 134.2,217.2 Q 138.0,213.5 142.0,210.0 Q 146.0,206.5 150.2,203.2 Q 154.5,200.0 158.5,196.5 Q 162.5,193.0 166.8,189.8 Q 171.0,186.5 175.2,183.2 Q 179.5,180.0 184.0,177.0 Q 188.5,174.0 192.8,170.8 Q 197.0,167.5 201.8,164.8 Q 206.5,162.0 210.8,158.8 Q 215.0,155.5 219.5,152.5 Q 224.0,149.5 228.2,146.2 Q 232.5,143.0 229.0,143.5 Q 225.5,144.0 221.2,147.2 Q 217.0,150.5 212.0,152.0 Q 207.0,153.5 202.0,156.0 Q 197.0,158.5 192.8,160.8 Q 188.5,163.0 183.5,165.5 Q 178.5,168.0 173.8,170.8 Q 169.0,173.5 164.2,176.2 Q 159.5,179.0 155.2,182.2 Q 151.0,185.5 146.5,188.5 Q 142.0,191.5 137.8,194.8 Q 133.5,198.0 129.2,201.2 Q 125.0,204.5 121.5,208.5 Q 118.0,212.5 113.8,215.8 Q 109.5,219.0 106.0,223.0 Q 102.5,227.0 99.2,231.2 Q 96.0,235.5 93.0,239.0 Q 90.0,242.5 86.8,246.8 Q 83.5,251.0 80.8,255.8 Q 78.0,260.5 74.8,264.8 Q 71.5,269.0 69.5,264.0 Q 67.5,259.0 66.5,252.5 Q 65.5,246.0 64.5,239.5 Q 63.5,233.0 63.5,225.5 Q 63.5,218.0 63.8,210.8 Q 64.0,203.5 65.2,197.2 Q 66.5,191.0 67.8,184.8 Q 69.0,178.5 70.5,173.5 Q 72.0,168.5 74.5,163.5 Q 77.0,158.5 79.8,153.8 Q 82.5,149.0 85.5,144.5 Q 88.5,140.0 92.0,136.0 Q 95.5,132.0 99.5,128.5 Q 103.5,125.0 107.0,121.0 Q 110.5,117.0 115.2,114.2 Q 120.0,111.5 125.0,109.0 Q 130.0,106.5 134.2,103.8 Q 138.5,101.0 143.8,99.2 Q 149.0,97.5 154.5,95.5 Q 160.0,93.5 165.5,91.5 Q 171.0,89.5 176.5,87.5 Q 182.0,85.5 188.0,84.0 Q 194.0,82.5 199.2,81.2 Q 204.5,80.0 210.2,78.2 Q 216.0,76.5 222.0,75.0 Q 228.0,73.5 233.5,71.5 Q 239.0,69.5 244.5,67.5 Q 250.0,65.5 255.8,63.8 Q 261.5,62.0 266.8,59.8 Q 272.0,57.5 277.0,55.0 Q 282.0,52.5 286.5,49.5 Q 291.0,46.5 295.8,43.8 Q 300.5,41.0 304.5,37.5 Q 308.5,34.0 312.0,30.0 Q 315.5,26.0 318.0,28.5 Q 320.5,31.0 321.5,37.5 Q 322.5,44.0 323.8,50.2 Q 325.0,56.5 325.8,63.2 Q 326.5,70.0 327.0,77.0 Q 327.5,84.0 328.0,91.0 Q 328.5,98.0 328.5,105.5 Q 328.5,113.0 328.0,120.0 Q 327.5,127.0 327.0,134.0 Q 326.5,141.0 325.5,147.5 Q 324.5,154.0 323.2,160.2 Q 322.0,166.5 320.5,172.5 Q 319.0,178.5 317.5,184.0 Q 316.0,189.5 314.2,193.8 Q 312.5,198.0 310.0,203.0 Q 307.5,208.0 305.2,213.2 Q 303.0,218.5 300.2,223.2 Q 297.5,228.0 294.2,232.2 Q 291.0,236.5 288.0,241.0 Q 285.0,245.5 281.2,249.2 Q 277.5,253.0 274.0,257.0 Q 270.5,261.0 266.5,264.5 Q 262.5,268.0 258.5,271.5 Q 254.5,275.0 250.0,278.0 Q 245.5,281.0 240.8,283.8 Q 236.0,286.5 232.5,289.5 Q 229.0,292.5 223.2,294.2 Q 217.5,296.0 212.2,298.2 Q 207.0,300.5 201.0,302.0 Q 195.0,303.5 188.8,304.8 Q 182.5,306.0 175.8,306.8 Q 169.0,307.5 162.0,308.0 Q 155.0,308.5 148.0,308.0 Q 141.0,307.5 134.0,307.0 Q 127.0,306.5 120.8,305.2 Q 114.5,304.0 108.5,302.5 Q 102.5,301.0 98.8,304.2 Q 95.0,307.5 93.8,312.8 Q 92.5,318.0 89.5,322.5 Q 86.5,327.0 84.5,332.5 Q 82.5,338.0 81.5,343.0 Q 80.5,348.0 79.0,352.5 Q 77.5,357.0 75.2,362.2 Q 73.0,367.5 71.0,368.5 Z Z" fill="#1f9c46" stroke="none" fill-rule="evenodd"/>
</svg>
